HIERARCHY
ROOT root
{
	OFFSET 0.000000 0.000000 0.000000
	CHANNELS 6 Xposition Yposition Zposition Zrotation Yrotation Xrotation
	JOINT lhip
	{
		OFFSET 0.058581 -0.082280 -0.017664
		CHANNELS 3 Zrotation Yrotation Xrotation
		JOINT lknee
		{
			OFFSET 0.043451 -0.386469 0.008037
			CHANNELS 3 Zrotation Yrotation Xrotation
			JOINT lankle
			{
				OFFSET -0.014790 -0.426874 -0.037428
				CHANNELS 3 Zrotation Yrotation Xrotation
				JOINT ltoe
				{
					OFFSET 0.041054 -0.060286 0.122042
					CHANNELS 3 Zrotation Yrotation Xrotation
					End Site
					{
						OFFSET 0.000000 0.000000 0.000000
					}
				}
			}
		}
	}
	JOINT rhip
	{
		OFFSET -0.060310 -0.090513 -0.013543
		CHANNELS 3 Zrotation Yrotation Xrotation
		JOINT rknee
		{
			OFFSET -0.043257 -0.383688 -0.004843
			CHANNELS 3 Zrotation Yrotation Xrotation
			JOINT rankle
			{
				OFFSET 0.019056 -0.420046 -0.034562
				CHANNELS 3 Zrotation Yrotation Xrotation
				JOINT rtoe
				{
					OFFSET -0.034840 -0.062106 0.130323
					CHANNELS 3 Zrotation Yrotation Xrotation
					End Site
					{
						OFFSET 0.000000 0.000000 0.000000
					}
				}
			}
		}
	}
	JOINT lowerback
	{
		OFFSET 0.004439 0.124404 -0.038385
		CHANNELS 3 Zrotation Yrotation Xrotation
		JOINT upperback
		{
			OFFSET 0.004488 0.137956 0.026820
			CHANNELS 3 Zrotation Yrotation Xrotation
			JOINT chest
			{
				OFFSET -0.002265 0.056032 0.002855
				CHANNELS 3 Zrotation Yrotation Xrotation
				JOINT lowerneck
				{
					OFFSET -0.013390 0.211636 -0.033468
					CHANNELS 3 Zrotation Yrotation Xrotation
					JOINT upperneck
					{
						OFFSET 0.010113 0.088937 0.050410
						CHANNELS 3 Zrotation Yrotation Xrotation
						End Site
						{
							OFFSET 0.000000 0.000000 0.000000
						}
					}
				}
				JOINT lclavicle
				{
					OFFSET 0.071702 0.114000 -0.018898
					CHANNELS 3 Zrotation Yrotation Xrotation
					JOINT lshoulder
					{
						OFFSET 0.122921 0.045205 -0.019046
						CHANNELS 3 Zrotation Yrotation Xrotation
						JOINT lelbow
						{
							OFFSET 0.255332 -0.015649 -0.022946
							CHANNELS 3 Zrotation Yrotation Xrotation
							JOINT lwrist
							{
								OFFSET 0.265709 0.012698 -0.007375
								CHANNELS 3 Zrotation Yrotation Xrotation
								End Site
								{
									OFFSET 0.000000 0.000000 0.000000
								}
							}
						}
					}
				}
				JOINT rclavicle
				{
					OFFSET -0.082954 0.112472 -0.023707
					CHANNELS 3 Zrotation Yrotation Xrotation
					JOINT rshoulder
					{
						OFFSET -0.113228 0.046853 -0.008472
						CHANNELS 3 Zrotation Yrotation Xrotation
						JOINT relbow
						{
							OFFSET -0.260127 -0.014369 -0.031269
							CHANNELS 3 Zrotation Yrotation Xrotation
							JOINT rwrist
							{
								OFFSET -0.269108 0.006794 -0.006027
								CHANNELS 3 Zrotation Yrotation Xrotation
								End Site
								{
									OFFSET 0.000000 0.000000 0.000000
								}
							}
						}
					}
				}
			}
		}
	}
}
MOTION
Frames: 10
Frame Time: 0.033333
-2.098105 0.768219 0.993812 97.237653 -0.451253 84.644405 -4.831552 -8.414590 -2.365000 -2.686655 -12.953450 10.752590 2.561277 7.548380 -14.115334 0.000000 -0.000000 0.000000 3.818379 1.679949 3.054144 -4.895749 -2.027067 13.391342 1.740075 -13.666048 -21.473279 0.000000 -0.000000 0.000000 -4.915699 5.157504 5.676321 3.000076 -2.581643 5.970912 1.834998 1.341470 1.755362 15.235081 -10.100648 11.734251 12.640885 -14.849844 10.311885 -19.979716 -6.990220 2.597186 -58.270465 -12.246441 13.429082 3.668233 -16.193624 10.489785 -12.353541 -0.490672 -6.573032 19.175675 10.197140 2.809645 62.337800 4.830277 17.487084 -8.939365 24.557824 11.325736 1.386454 -0.765208 -4.908229 
-2.095543 0.768490 0.994213 97.705141 -0.693031 84.374959 -5.293544 -8.273097 -1.611263 -2.431764 -13.529135 10.273572 2.362816 7.524630 -13.914582 0.000000 -0.000000 0.000000 3.468924 0.959961 3.951249 -5.008789 -2.294765 12.631056 2.042738 -13.302279 -21.181619 0.000000 -0.000000 0.000000 -5.043862 5.690363 4.832386 2.554812 -2.036172 6.884158 1.648863 1.469234 1.419958 15.253703 -9.822863 11.248826 12.623139 -15.190900 9.744628 -20.221554 -6.501306 2.750913 -58.053492 -11.345404 13.630272 2.978806 -16.380261 11.581513 -12.239972 -0.616255 -7.321903 19.410457 10.150752 2.968521 62.372355 4.739625 17.879815 -7.400852 24.823862 13.002619 0.847355 -0.634454 -6.096096 
-2.095889 0.767969 0.994388 98.815690 -0.473656 84.371544 -4.972116 -8.392049 -2.017035 -2.712476 -13.883016 10.898093 2.161544 6.797022 -14.095242 0.000000 -0.000000 0.000000 3.693658 0.475626 4.147553 -5.112624 -3.151107 12.330538 1.838533 -13.627506 -20.045230 0.000000 -0.000000 0.000000 -4.864197 5.802913 4.811434 2.353076 -2.057882 6.577088 1.503949 1.559054 1.519471 15.025673 -9.857113 10.684391 12.727870 -15.145820 9.163826 -20.432833 -6.116097 2.959155 -58.159099 -10.634796 13.614088 2.397272 -16.129283 12.074868 -12.356454 -0.717858 -6.030275 19.369179 9.919570 2.810210 62.441303 4.606255 18.110208 -5.674190 25.290656 14.778865 1.279039 -0.445129 -6.111215 
-2.094622 0.767040 0.994630 99.387798 -0.492749 84.152778 -4.894419 -8.178315 -1.779285 -2.936786 -14.426667 11.048201 2.133393 6.604187 -13.954226 0.000000 -0.000000 0.000000 3.634171 -0.323323 4.475577 -5.180204 -3.451316 12.267441 1.669352 -13.389997 -19.114062 0.000000 -0.000000 0.000000 -4.841934 5.884219 5.117765 1.866143 -1.949302 6.048178 1.363885 1.683791 1.499381 14.856676 -9.476369 10.317956 12.812720 -14.616716 8.948100 -20.726556 -5.565246 2.858434 -57.984930 -9.322354 13.762727 1.456074 -16.032928 13.459035 -11.850027 -0.579432 -5.396764 19.602412 9.918883 2.814541 62.483964 4.385533 18.502655 -4.127188 25.385105 16.138586 0.994281 0.087407 -6.329466 
-2.094151 0.765811 0.995129 99.746697 -0.485850 83.645475 -4.818551 -8.043135 -1.219558 -3.144882 -14.877990 11.156683 1.955310 6.597042 -13.659175 0.000000 -0.000000 0.000000 3.804661 -0.372936 5.163705 -5.252520 -3.719240 12.200439 1.813667 -13.588966 -19.003887 0.000000 -0.000000 0.000000 -4.809765 5.881481 5.729722 1.492511 -1.780151 5.750524 1.210748 1.866374 1.436092 14.735245 -9.482139 9.960996 12.943428 -14.497669 8.409697 -21.221904 -5.273009 2.876140 -57.752878 -8.389613 13.920765 0.440958 -15.784353 14.778249 -11.412678 -0.285321 -4.766270 19.763337 9.980862 2.686517 62.414196 4.507150 18.545168 -3.216903 25.228855 16.854508 -0.278356 0.059320 -5.771604 
-2.093385 0.764369 0.995263 99.888608 -0.593922 83.302128 -4.825077 -7.857437 -0.769305 -3.177721 -14.931302 11.073749 1.794003 6.433406 -13.482455 0.000000 -0.000000 0.000000 3.725831 -0.640442 5.757949 -5.317240 -3.989872 11.907490 1.888862 -13.293318 -18.855251 0.000000 -0.000000 0.000000 -5.018294 6.245238 5.694253 1.223861 -1.484202 5.977825 1.149348 1.922952 1.422446 14.889748 -9.272280 9.403640 13.002688 -14.541244 7.876367 -21.401380 -5.319343 2.924217 -58.066054 -7.932374 14.201601 -0.184619 -15.129832 15.865265 -12.070332 -0.325881 -4.310603 19.468144 10.013293 2.530235 62.665764 4.240744 18.544101 -3.072345 25.124674 17.195611 0.079449 0.196227 -6.117964 
-2.093039 0.763170 0.995222 100.108791 -0.671498 83.189456 -4.859501 -7.985523 -0.644982 -3.146061 -14.914850 11.056892 1.712087 6.285354 -13.578797 0.000000 -0.000000 0.000000 3.643781 -0.707166 5.801629 -5.206354 -4.301768 12.113931 1.932346 -13.240928 -18.938780 0.000000 -0.000000 0.000000 -5.051324 6.419259 5.530455 0.934007 -1.345104 6.016023 0.927711 1.907984 1.399514 14.815938 -9.314420 8.997016 13.134706 -14.428471 7.571640 -21.609242 -5.451400 2.972022 -58.505517 -7.297309 14.429306 -0.246089 -14.961142 16.134684 -13.727082 -0.767486 -3.984081 19.030327 10.160993 2.413134 62.936980 3.607203 18.551198 -3.111633 25.864884 17.996668 4.239664 -0.326786 -6.345130 
-2.091804 0.761761 0.995946 100.098646 -1.031762 82.715818 -5.224279 -7.502162 0.242950 -2.971714 -15.392382 10.563544 1.539147 6.422319 -13.558610 0.000000 -0.000000 0.000000 3.200853 -1.350286 6.553759 -5.225283 -4.103908 11.806824 2.240386 -12.771720 -18.962000 0.000000 -0.000000 0.000000 -5.332088 6.704672 5.704361 0.398771 -1.029247 5.959557 0.901953 1.870286 1.423177 14.795437 -9.325689 8.618103 13.242816 -14.618770 7.095467 -22.174203 -4.939768 2.678348 -58.167253 -7.163523 14.666358 -1.351287 -15.099123 16.850827 -12.201381 -0.364868 -3.133494 19.605261 9.889563 2.490003 62.001604 3.764514 18.702086 -1.135478 25.803284 19.036855 -0.470018 0.694687 -4.743764 
-2.091459 0.759021 0.996736 100.540844 -0.997458 82.879138 -4.788169 -7.479367 -0.007957 -3.215981 -15.214057 10.692752 1.558039 5.724358 -13.712744 0.000000 -0.000000 0.000000 3.368674 -1.736962 6.668209 -5.225625 -4.247844 11.302416 2.135083 -12.948569 -18.806090 0.000000 -0.000000 0.000000 -5.644668 6.703794 4.995889 0.322935 -1.182205 6.259270 0.801914 1.907376 1.206493 14.449596 -9.495638 8.327696 13.338056 -14.359932 6.775209 -22.184983 -4.990068 2.632197 -58.353969 -6.922097 14.501417 -1.154242 -15.465086 16.623627 -13.730822 -0.089793 -2.951597 19.421707 9.799985 2.291496 62.123744 2.979218 18.854849 -1.142322 27.103326 20.469625 5.528790 -0.820393 -3.888452 
-2.091747 0.756620 0.996741 100.700111 -1.023686 82.826825 -4.576134 -7.266546 -0.059708 -3.273711 -15.269834 10.770972 1.497346 5.326714 -13.889239 0.000000 -0.000000 0.000000 3.538079 -1.615765 6.678016 -5.268968 -4.510286 11.413800 2.043710 -12.873524 -18.707712 0.000000 -0.000000 0.000000 -5.760509 6.762234 5.098020 0.156319 -0.979631 5.909331 0.735360 1.804893 1.142706 14.207733 -9.299046 7.693285 13.150192 -14.466774 6.370645 -22.084086 -4.943836 2.295048 -58.460021 -7.159392 14.433614 -0.592828 -15.168695 17.405813 -15.160577 0.191730 -1.450989 19.170410 9.509506 1.941356 62.389899 2.568312 18.990253 -0.652059 27.496029 21.655772 7.001118 -1.261854 -4.120148 
